<?xml version="1.0"?>
<svg width="300" height="331" xmlns="http://www.w3.org/2000/svg" xmlns:svg="http://www.w3.org/2000/svg" xmlns:xlink="http://www.w3.org/1999/xlink" preserveAspectRatio="xMidYMid meet">
 <g display="inline">
  <title>Layer 1</title>
  <g transform="translate(0,331) scale(1, 1)" fill="#000000" id="svg_1">
   <path d="m956.40625,3038.90625c-17,-33 -15,-88 5,-110c14,-16 15,-20 3,-20c-8,0 -23,7 -34,15c-28,21 -34,18 -34,-19c0,-23 8,-42 26,-60c15,-14 22,-26 15,-26c-6,0 -11,-7 -11,-15c0,-8 6,-15 13,-15c8,0 24,-9 37,-20c27,-24 28,-24 71,-6c24,10 39,11 56,3c18,-8 33,-6 71,11c41,19 122,27 122,12c-1,-11 -26,-37 -47,-49c-13,-6 -23,-18 -23,-25c0,-8 -17,-26 -37,-42c-21,-16 -45,-36 -55,-46c-10,-10 -22,-18 -28,-18c-26,0 -6,-17 34,-29c49,-14 100,-8 140,18c27,18 27,18 57,-9c32,-31 36,-40 15,-40c-24,0 -56,-55 -56,-97c0,-21 -5,-45 -10,-53c-8,-13 -12,-12 -31,7c-18,17 -20,25 -11,36c18,21 5,26 -31,13c-35,-12 -53,-29 -67,-63c-6,-14 -18,-23 -31,-23c-27,0 -79,-31 -79,-47c0,-7 8,-13 19,-13c26,0 48,-27 33,-42c-25,-25 -142,67 -142,114c0,29 -66,168 -93,196c-28,29 -37,33 -69,29c-20,-3 -51,-15 -68,-27c-19,-14 -55,-25 -95,-30c-48,-6 -73,-15 -97,-35c-51,-42 -84,-98 -98,-165c-7,-33 -17,-63 -21,-66c-10,-6 -1,-124 11,-139c4,-5 11,-29 15,-52c4,-24 18,-59 31,-78c28,-41 29,-48 11,-64c-26,-21 -41,-94 -38,-193c1,-54 -1,-103 -5,-110c-20,-31 -19,-109 0,-146c8,-15 27,-39 43,-53c31,-29 173,-112 213,-124c30,-9 51,-25 46,-34c-3,-4 -40,-8 -83,-9c-92,-4 -139,-24 -166,-72c-18,-32 -18,-33 7,-87c15,-29 26,-62 26,-71c0,-10 6,-24 12,-30c10,-10 10,-17 0,-32c-26,-43 -3,-87 67,-128c41,-24 56,-27 138,-27c50,0 95,3 99,7c4,4 -5,23 -20,42c-14,19 -26,37 -26,40c0,3 16,20 35,38c25,23 38,45 42,71l6,39l-39,-21c-46,-25 -84,-27 -84,-6c0,8 7,15 16,15c8,0 39,11 68,25c68,32 77,53 68,165c-4,47 -4,103 1,126c10,52 -3,78 -83,160c-57,59 -169,144 -188,144c-5,0 -19,11 -31,24c-21,22 -21,26 -8,59c19,44 34,53 55,34c25,-22 91,-53 140,-66c47,-13 61,-8 127,43c22,17 52,37 68,44c15,6 27,16 27,22c0,7 15,9 42,5c43,-7 173,19 184,37c12,19 -6,20 -52,4c-67,-22 -163,-22 -171,2c-4,9 -9,19 -13,22c-15,12 -48,93 -43,106c3,9 -2,14 -16,14c-23,0 -91,-59 -91,-79c0,-7 -9,-9 -25,-5c-34,8 -85,-14 -95,-42c-6,-14 -21,-26 -37,-30c-35,-8 -110,-68 -118,-94c-7,-23 -37,-26 -55,-6c-16,20 -23,93 -10,101c5,3 10,15 10,25c0,21 55,81 104,112c27,17 28,19 6,13c-14,-4 -40,-21 -57,-38c-18,-17 -33,-26 -33,-21c0,19 71,75 125,100c34,15 84,26 134,30c69,6 87,4 130,-15c51,-22 117,-29 106,-11c-3,6 -14,10 -23,10c-9,0 -49,11 -87,25c-77,29 -73,24 -163,190c-5,11 -17,40 -26,65c-18,51 -48,87 -99,119c-45,28 -68,19 -137,-51l-53,-53l24,44c36,65 123,120 165,104c9,-3 52,11 96,33l79,39l35,-40c19,-22 37,-51 40,-65c3,-14 12,-38 20,-55c7,-16 18,-48 24,-70c12,-51 46,-93 89,-111c43,-18 61,-18 101,3l33,16l-32,26c-38,32 -40,51 -3,53c15,0 34,2 42,2c8,1 15,8 16,16c1,23 15,50 25,50c16,0 85,-76 81,-88c-5,-17 -22,-15 -44,5c-16,15 -18,15 -18,0c0,-9 9,-21 20,-27c19,-10 19,-11 -1,-44c-22,-37 -66,-60 -114,-60c-28,1 -28,1 -2,-3c31,-5 36,-23 8,-30c-12,-3 -17,-11 -14,-19c3,-8 0,-14 -7,-14c-23,0 -132,31 -151,43c-10,6 -22,8 -26,4c-11,-12 14,-24 89,-43c38,-9 68,-21 68,-26c0,-13 -77,-7 -117,9c-38,15 -53,16 -53,4c0,-5 33,-17 73,-25c77,-18 137,-44 137,-61c0,-6 -27,-10 -66,-9c-36,0 -67,-3 -70,-8c-3,-4 36,-8 85,-8c53,0 91,-4 91,-10c0,-15 -45,-23 -115,-18c-64,4 -86,-4 -42,-16c38,-10 142,-7 155,6c9,9 17,5 37,-14c35,-35 22,-41 -92,-46c-51,-3 -90,-8 -87,-13c7,-12 121,-11 166,1c31,9 40,8 57,-6c20,-17 19,-18 -17,-54c-43,-42 -82,-95 -82,-110c0,-6 -40,-10 -109,-10l-108,0l4,-587c4,-593 6,-653 23,-653c6,0 10,-6 10,-13c0,-20 50,-64 95,-83c34,-14 64,-15 215,-9c173,6 175,6 210,-17c21,-14 39,-37 45,-56c12,-40 20,-40 31,0c6,21 22,40 44,53c31,18 57,21 236,25l201,5l35,30c20,17 41,48 49,70c7,22 15,45 19,50c3,6 3,64 0,130c-4,66 -7,241 -8,388c-1,147 -5,279 -8,294c-5,19 -3,24 7,21c19,-6 45,-54 65,-117c9,-30 32,-70 51,-92c20,-22 33,-42 30,-45c-3,-3 -24,0 -47,6c-37,10 -43,9 -55,-7c-31,-41 7,-122 57,-123c26,0 32,-19 13,-40c-14,-15 -16,-29 -10,-66c7,-46 7,-46 26,-26c10,12 36,24 56,27c76,12 133,27 139,36c3,5 13,9 22,9c17,1 102,99 102,118c0,6 -9,27 -21,46c-17,30 -20,45 -14,86c9,63 -2,77 -63,86c-49,7 -112,56 -112,86c0,14 51,58 67,58c19,0 109,85 132,124c24,40 25,47 26,231c0,149 -3,195 -14,214c-23,37 -84,69 -155,82c-66,12 -82,24 -48,36c23,9 111,99 144,148c15,22 30,60 34,85c4,25 11,50 16,57c6,7 6,19 0,30c-5,10 -12,35 -16,55c-7,40 -45,78 -77,78c-11,0 -46,18 -78,40c-42,29 -69,40 -95,40c-56,0 -126,-37 -183,-98c-66,-71 -86,-132 -81,-243c3,-76 2,-80 -20,-86c-33,-8 -34,-2 -12,43l20,39l-22,17c-13,10 -31,16 -40,14c-13,-3 -23,6 -35,31c-19,40 -52,56 -99,47c-29,-5 -32,-8 -23,-26c12,-23 8,-70 -6,-75c-6,-2 -16,18 -23,44c-18,67 -42,113 -58,113c-8,0 -14,8 -15,18c0,15 -1,15 -7,1c-6,-14 -10,-10 -24,17c-10,18 -14,35 -10,37c15,10 52,-13 52,-32c0,-11 5,-23 10,-26c14,-9 13,58 -2,73c-7,7 -25,12 -40,12c-35,0 -36,14 -3,36c23,15 28,15 79,-7c50,-20 59,-21 94,-10c33,11 38,16 34,39c-3,25 0,27 31,28c41,1 91,30 84,49c-4,8 7,15 31,19c23,3 51,19 75,41l37,35l-27,0l-28,1l34,29c19,16 32,33 28,36c-12,12 -65,-17 -63,-34c1,-11 -11,-20 -36,-26c-51,-13 -48,-26 5,-26c39,-1 41,-2 23,-15c-11,-8 -30,-15 -42,-15c-29,0 -54,-10 -54,-21c0,-5 -8,-18 -17,-29c-21,-24 -88,-27 -117,-5c-11,8 -28,15 -38,15c-18,0 -18,1 1,21c16,18 26,20 57,14c21,-3 47,-13 58,-21c26,-18 32,-18 39,0c3,8 -4,27 -15,41l-21,27l26,24c17,16 38,24 61,24c25,0 44,9 68,30c18,17 37,30 43,30c16,0 47,39 40,50c-4,6 -15,6 -28,-2c-37,-20 -126,-37 -133,-26c-3,5 -17,7 -30,4c-14,-4 -37,0 -54,9c-20,10 -36,13 -48,7c-17,-10 -92,-26 -104,-24c-17,4 -107,-30 -120,-45c-16,-19 -30,-73 -19,-73c3,0 12,-10 20,-22c12,-19 11,-24 -9,-40c-12,-10 -31,-18 -41,-18c-27,0 -69,29 -69,48c0,13 3,13 19,-2c23,-20 61,-13 61,11c0,8 -11,24 -25,35c-14,11 -25,28 -25,38c0,24 59,70 91,70c42,1 109,37 109,60c0,28 28,25 42,-4c9,-22 16,-24 60,-21c27,2 52,6 55,9c11,10 55,7 48,-4c-3,-5 1,-10 9,-10c10,0 13,6 10,15c-4,9 -1,15 7,15c8,0 26,7 42,14c26,14 27,14 17,-4c-6,-10 -20,-26 -32,-34c-27,-19 -21,-27 10,-15c32,12 82,129 55,129c-3,0 -18,-14 -32,-31c-28,-32 -76,-48 -146,-49c-23,0 -46,-5 -53,-12c-8,-8 -18,-3 -41,20c-20,23 -38,32 -60,32c-31,0 -44,-23 -18,-34c19,-8 -31,-46 -62,-46c-14,0 -45,-9 -68,-19c-66,-31 -83,-84 -38,-125c32,-30 22,-39 -22,-18c-32,15 -36,15 -65,-1c-40,-23 -45,-16 -18,21c53,71 14,126 -97,137c-37,3 -75,7 -83,8c-21,3 -25,35 -6,56c38,42 -36,42 -94,0c-43,-32 -43,-32 -117,-21c-84,12 -107,25 -98,59c7,28 -10,30 -25,3zm320,-38c0,-4 -5,-13 -12,-20c-8,-8 -9,-18 -1,-35c12,-27 47,-37 123,-37c37,0 53,-6 74,-25c26,-24 27,-28 13,-48c-35,-55 -40,-65 -34,-81c8,-20 40,-21 57,-1c15,18 30,19 30,3c0,-20 -57,-48 -96,-48c-27,0 -37,5 -45,24c-13,28 -6,68 16,90c20,19 19,24 -7,47c-19,15 -40,18 -112,19c-78,0 -93,3 -113,22c-29,27 -29,34 2,42c14,4 25,11 25,16c0,11 48,39 68,40c6,0 12,-4 12,-8zm-300,-11c0,-13 82,-41 123,-41c27,0 37,-4 37,-16c0,-11 -6,-15 -20,-11c-11,3 -20,1 -20,-4c0,-16 -50,-21 -81,-9c-38,16 -79,90 -49,90c6,0 10,-4 10,-9zm0,-102c81,-2 112,-27 58,-46c-42,-15 -84,-6 -103,20c-19,27 -21,57 -3,39c7,-7 28,-12 48,-13zm970,9c0,-10 -56,-38 -76,-38c-10,0 -25,-7 -35,-16c-18,-16 -169,-34 -169,-20c0,11 22,31 49,45c21,12 68,9 107,-6c8,-3 14,1 14,11c0,9 7,16 15,16c8,0 15,4 15,8c0,4 18,8 40,7c22,0 40,-3 40,-7zm-760,-19c34,-20 45,-21 98,-12c80,12 115,0 94,-34c-17,-27 -182,-19 -182,8c0,5 -7,9 -16,9c-15,0 -15,-2 -1,-24c15,-22 15,-25 1,-30c-38,-15 -144,3 -144,24c0,12 56,23 79,15c35,-11 31,11 -5,24c-43,15 -44,29 -1,34c17,2 34,5 36,5c2,1 20,-8 41,-19zm924,10c-3,-6 -24,-19 -46,-29c-31,-14 -46,-15 -78,-6c-69,18 -46,33 60,39c30,2 59,4 63,5c5,1 5,-3 1,-9zm-144,-58c0,-10 -13,-15 -67,-26c-44,-9 -42,-25 2,-25c24,0 37,-6 45,-21c11,-19 10,-20 -27,-12c-21,4 -55,7 -75,6c-21,0 -38,4 -38,10c0,6 -7,19 -17,29c-15,17 -14,18 25,18c33,0 40,3 36,15c-5,12 5,15 55,15c34,0 61,-4 61,-9zm-935,-31c25,-11 27,-14 12,-17c-25,-6 -87,6 -87,16c0,22 28,22 75,1zm752,-28c29,-38 6,-66 -65,-77c-44,-7 -58,2 -36,26c12,13 31,19 61,19c30,0 42,4 37,11c-4,7 -22,9 -45,6c-32,-4 -42,-1 -54,16c-8,12 -15,24 -15,28c0,13 104,-13 117,-29zm-429,6c-2,-14 -16,-30 -38,-40c-28,-14 -31,-18 -13,-18c12,0 28,7 37,15c10,10 17,12 21,4c11,-18 -27,-38 -72,-39c-52,0 -55,14 -8,41c19,12 35,27 35,34c0,12 14,22 33,24c5,1 7,-9 5,-21zm259,-82c21,-3 44,-13 51,-23c9,-12 16,-14 19,-6c6,16 65,5 80,-14c7,-9 16,-13 20,-9c4,4 1,11 -6,15c-7,5 -10,14 -7,20c20,31 110,-14 104,-53c-4,-31 -78,-35 -115,-7c-35,28 -54,26 -86,-7c-20,-20 -38,-29 -64,-30l-36,-2l28,30c27,29 28,31 12,47c-14,15 -22,15 -47,6c-28,-11 -30,-10 -30,13c0,13 -5,24 -10,24c-6,0 -8,-11 -4,-25c7,-28 -12,-34 -45,-13c-10,6 -26,8 -35,5c-23,-9 -20,-44 5,-58c46,-24 -35,-40 -86,-17c-16,7 -28,23 -32,40l-5,28l-38,-30c-29,-23 -48,-30 -89,-31c-28,-1 -53,0 -56,3c-2,2 18,21 45,42c41,31 54,36 82,31c21,-4 44,-1 63,9c17,9 38,16 48,16c19,0 23,-15 7,-25c-5,-3 -10,-13 -10,-21c0,-8 5,-14 10,-14c6,0 10,5 10,11c0,18 28,39 52,39c13,0 36,9 53,20c26,17 32,18 52,5c12,-8 39,-17 60,-19zm-92,-59c17,0 42,3 58,7c37,11 36,-11 -1,-27c-16,-7 -27,-18 -25,-24c3,-9 -7,-13 -32,-13c-32,0 -36,2 -30,20c5,15 2,20 -13,20c-11,0 -26,7 -33,17c-13,15 -11,15 16,9c17,-5 44,-9 60,-9zm877,-63c31,-27 56,-40 111,-58c43,-14 46,-111 6,-201c-29,-65 -54,-99 -109,-152c-64,-62 -146,-101 -305,-147c-11,-3 7,-4 40,-2c35,2 86,14 121,30c61,25 63,25 135,10c67,-14 150,-51 163,-73c3,-4 6,-88 7,-185c1,-175 1,-177 -28,-232c-15,-31 -32,-56 -36,-55c-4,1 -17,-8 -30,-19c-33,-30 -84,-70 -90,-70c-9,0 -71,-61 -94,-93c-17,-23 -23,-44 -23,-86c0,-63 -10,-59 -35,14c-9,28 -27,70 -41,94c-30,55 -30,69 2,117c42,63 135,165 158,174c35,13 113,88 120,115c4,14 11,25 17,25c7,0 9,-9 4,-22c-3,-13 -7,-28 -7,-35c-1,-7 -6,-11 -12,-10c-5,1 -12,-7 -14,-18c-2,-11 -24,-39 -50,-62c-25,-24 -43,-46 -39,-49c5,-6 59,41 137,119c18,18 18,18 18,-27c0,-43 -3,-49 -51,-92c-29,-25 -66,-52 -83,-59c-34,-15 -60,-42 -50,-52c3,-4 19,6 34,20c16,15 32,27 38,27c5,0 31,21 57,45c26,25 50,45 53,45c3,0 -4,-16 -16,-35c-15,-25 -18,-35 -8,-35c7,0 21,21 32,46c34,84 6,206 -54,235c-14,7 -52,13 -85,14c-67,3 -73,14 -29,51l26,21l-35,22c-43,26 -51,26 -93,0c-38,-23 -54,-19 -54,14c0,12 -4,28 -9,36c-21,33 -91,-60 -91,-122c0,-21 -41,-25 -133,-13c-79,10 -98,21 -49,29c15,2 10,3 -10,2c-26,-2 -38,1 -38,10c0,7 -2,19 -5,27c-4,10 13,13 77,15c46,1 103,5 128,9c73,12 10,22 -75,11c-83,-9 -157,-6 -162,8c-2,6 33,11 90,12c121,2 197,12 197,25c0,7 -14,8 -38,4c-83,-13 -262,-19 -262,-8c0,6 -2,16 -5,24c-4,10 6,13 47,12c54,-2 199,13 207,21c13,13 -15,15 -99,5c-87,-10 -160,-6 -160,9c0,3 35,7 78,8c42,2 104,9 137,17l60,15l-52,-5c-29,-3 -91,-7 -138,-9c-67,-3 -85,0 -85,11c0,9 8,12 28,8c34,-7 208,11 245,25c16,6 25,16 22,21c-4,7 -11,7 -18,2c-28,-22 -255,-47 -272,-30c-3,3 -3,12 0,20c4,10 30,19 73,26c261,42 376,91 441,190c46,67 52,171 13,215c-16,18 -92,25 -92,7c0,-5 7,-7 15,-4c22,9 18,-3 -11,-34c-38,-39 -76,-102 -71,-115c3,-7 12,4 20,24c9,19 34,54 57,77c35,37 43,41 61,31c20,-10 20,-11 2,-32c-14,-17 -14,-19 -1,-9c32,25 30,-8 -3,-40c-37,-37 -59,-85 -59,-127c0,-39 -45,-76 -118,-97c-31,-9 -61,-17 -66,-18c-15,-2 -5,134 15,198c16,54 69,129 69,98c0,-6 21,9 48,34c45,44 49,45 99,42c39,-4 59,-11 85,-34zm-917,-20c15,-6 45,-53 45,-73c0,-18 -32,-4 -55,25c-36,44 -32,64 10,48zm156,-4c8,0 39,-63 39,-81c0,-23 -32,-5 -55,31c-29,45 -32,65 -9,56c9,-3 20,-6 25,-6zm-196,-36c29,-38 25,-63 -5,-26c-10,12 -24,22 -32,22c-9,-1 -8,-5 5,-14c21,-16 22,-26 2,-26c-12,0 -45,47 -45,64c0,4 19,11 41,15c4,0 19,-15 34,-35zm152,1c13,-19 18,-37 13,-40c-5,-3 -15,3 -22,15c-7,11 -17,20 -22,20c-6,0 -5,-5 2,-12c16,-16 15,-29 -1,-22c-8,3 -21,20 -30,39l-17,35l28,0c20,0 33,-9 49,-35zm-217,-47c0,-13 -8,-18 -30,-18c-33,0 -38,16 -19,51c10,20 11,20 30,3c10,-9 19,-25 19,-36zm-754,-22c7,-8 19,-16 26,-18c8,-3 6,-13 -8,-34c-53,-77 -60,-169 -19,-249c18,-37 21,-51 12,-57c-7,-5 -24,-16 -39,-25c-16,-10 -28,-20 -28,-24c0,-7 -66,-49 -76,-49c-2,0 -4,7 -4,15c0,8 -10,34 -22,57c-19,36 -23,59 -22,138c0,81 4,103 26,153c15,31 35,60 45,64c10,3 29,15 42,25c28,22 48,23 67,4zm1096,-29c24,-31 24,-51 -1,-38c-24,13 -116,23 -146,15c-13,-3 -26,-12 -29,-21c-4,-11 -1,-13 14,-8c62,20 210,5 210,-21c0,-7 3,-20 6,-29c6,-14 -2,-16 -62,-12c-38,3 -78,2 -89,-2c-12,-5 10,-10 63,-15c46,-3 87,-4 93,-1c5,4 9,-1 9,-9c0,-9 -7,-16 -15,-16c-8,0 -24,-9 -36,-21c-19,-19 -22,-20 -54,-5c-18,9 -36,16 -40,16c-12,0 -142,66 -173,89c-17,12 -32,30 -34,40c-3,18 -6,18 -43,5c-44,-15 -95,-18 -95,-6c0,17 26,42 48,47c12,2 27,7 33,11c21,12 163,19 244,11c65,-6 83,-12 97,-30zm638,36c-1,-16 -56,-107 -67,-110c-16,-6 -5,34 24,80c21,33 43,49 43,30zm-1660,-70c7,-16 21,-52 31,-82c20,-58 51,-113 82,-148c11,-13 18,-26 14,-29c-3,-3 -30,-8 -59,-10c-29,-2 -62,-6 -74,-9c-17,-4 -25,3 -40,37c-24,53 -23,191 1,237c19,38 28,39 45,4zm1217,-21c7,-9 10,-29 7,-43c-5,-26 -4,-27 40,-22c53,6 56,0 24,-50c-31,-47 -55,-56 -170,-59c-75,-2 -110,14 -66,31c14,5 41,29 62,52c28,33 36,51 36,82c0,38 1,39 27,32c15,-3 33,-14 40,-23zm-487,-11c0,-11 50,-67 56,-63c2,1 10,2 17,2c6,-1 -3,-7 -20,-15c-22,-9 -33,-21 -33,-35c0,-11 -1,-20 -2,-20c-55,-4 -178,-20 -190,-25c-27,-11 -23,24 8,79c28,49 66,82 83,71c6,-3 19,-1 28,4c23,13 53,14 53,2zm130,-98c0,-3 -9,-3 -20,0c-13,3 -20,0 -20,-9c0,-15 14,-17 45,-5c19,8 64,-5 66,-18c0,-3 1,-54 3,-113l3,-107l-31,-7c-17,-4 -37,-10 -46,-14c-108,-52 -171,-89 -199,-118l-34,-35l-18,24c-10,13 -19,29 -19,36c0,6 -16,33 -36,58c-19,26 -33,49 -31,51c2,3 24,11 48,19c42,14 30,14 -38,0c-27,-5 -37,-1 -69,29c-21,20 -36,37 -33,39c2,2 42,9 89,16c88,13 286,62 336,82c16,7 34,11 41,10c6,-1 14,3 18,9c11,18 -77,4 -130,-20c-22,-11 -244,-58 -311,-67c-23,-3 -44,-1 -47,4c-9,14 80,96 94,87c9,-5 7,-11 -6,-20c-10,-8 -16,-16 -13,-19c7,-7 240,37 256,48c6,5 12,18 12,28c0,14 7,19 25,19c14,0 25,5 25,10c0,7 6,7 20,0c11,-6 20,-13 20,-17zm124,-146c1,-82 -1,-97 -14,-95c-12,3 -16,24 -18,102c-3,87 -2,97 13,94c14,-2 17,-18 19,-101zm46,68c7,-8 24,-15 37,-15c21,0 24,-4 19,-22c-3,-13 -6,-33 -6,-45c0,-12 -7,-28 -15,-37c-13,-13 -13,-15 5,-21c11,-3 20,-13 20,-20c0,-11 -8,-13 -32,-8c-39,7 -45,12 -50,38c-2,16 2,19 20,18c12,-2 22,2 22,7c0,6 -10,10 -23,10c-17,0 -23,6 -25,26c-1,19 2,25 13,20c8,-3 17,-1 20,4c4,6 -3,10 -14,10c-16,0 -21,6 -21,25c0,28 12,32 30,10zm-776,-225c37,-70 35,-106 -6,-123c-18,-8 -39,-22 -47,-31c-21,-25 -82,-48 -108,-41c-22,5 -33,25 -15,25c5,0 14,11 20,25c10,21 9,32 -3,55c-8,16 -19,32 -25,35c-20,12 1,25 41,25c32,0 39,-4 39,-19c0,-10 7,-22 16,-25c12,-5 15,0 14,22c-3,42 -2,47 23,75c12,14 23,26 23,26c1,1 14,-21 28,-49zm840,19c34,-16 66,-68 66,-107c0,-48 -57,-92 -119,-92c-41,0 -53,5 -89,38c-23,22 -42,44 -42,50c0,19 28,14 34,-6c8,-25 58,-52 95,-52c74,0 105,59 55,105c-37,34 -93,33 -163,-2c-58,-30 -234,-187 -265,-237c-11,-17 -21,-32 -22,-34c-2,-4 -90,55 -115,77c-8,6 -23,18 -33,25c-19,13 -18,16 23,67c24,30 48,54 54,54c7,0 16,-17 21,-37c5,-21 13,-38 16,-38c4,0 30,21 57,48c28,26 56,52 64,57c116,86 277,123 363,84zm444,-121c9,-9 12,-7 12,10c0,32 30,62 62,62c33,0 32,2 13,-44c-12,-28 -13,-46 -6,-71c5,-19 6,-36 3,-36c-18,-3 -48,4 -61,14c-7,6 -34,14 -60,17c-38,4 -48,10 -60,34c-12,26 -11,34 9,74l22,46l27,-47c15,-26 33,-53 39,-59zm-457,36c5,-3 9,-12 9,-20c0,-11 -6,-13 -20,-9c-11,3 -20,2 -20,-4c0,-21 -40,-22 -66,-2c-14,11 -25,23 -25,28c0,18 96,24 122,7zm-1298,-39c-6,-35 21,-115 38,-115c4,0 29,-18 54,-40c26,-22 66,-50 88,-61c47,-24 227,-201 227,-224c0,-8 -1,-15 -3,-15c-2,0 -27,23 -55,50c-49,47 -82,63 -82,40c0,-5 5,-10 12,-10c17,0 118,-101 118,-118c0,-8 -27,11 -61,42c-33,31 -65,54 -70,51c-13,-9 -11,-25 4,-25c7,0 37,-25 67,-55c57,-58 61,-69 60,-195c0,-24 -33,-59 -55,-60c-6,0 -5,3 1,8c25,16 25,62 0,115c-30,67 -40,75 -171,142c-211,109 -224,124 -206,241c7,40 12,108 11,151c-2,77 4,113 20,113c5,0 6,-16 3,-35zm285,23c17,-17 15,-52 -6,-78l-17,-21l-48,26c-51,29 -53,40 -8,50c16,3 35,13 42,21c14,17 21,18 37,2zm850,-59c14,-17 45,-40 69,-50c24,-10 43,-23 43,-30c0,-7 -7,-8 -17,-4c-33,14 -199,18 -222,5c-13,-6 -25,-10 -27,-7c-8,8 107,117 124,117c2,0 15,-14 30,-31zm439,7c53,-1 65,-5 78,-24c12,-17 26,-22 58,-22c25,0 54,-8 72,-20c17,-11 39,-20 49,-20c26,0 84,40 92,63c7,21 52,23 60,2c11,-28 -50,-99 -111,-129c-60,-30 -162,-140 -193,-210c-7,-16 -15,-26 -18,-23c-3,3 -5,74 -5,158l2,152l-178,-6c-98,-3 -188,-9 -200,-13c-14,-4 -23,-2 -23,5c0,6 8,11 19,11c34,0 103,44 114,73c6,16 14,17 64,12c32,-4 86,-8 120,-9zm318,-26c-7,-24 -28,-22 -33,2c-2,9 5,18 15,20c24,6 26,3 18,-22zm-271,-91c3,-3 6,-61 7,-130c0,-81 5,-127 12,-131c8,-5 9,-11 2,-15c-6,-5 -10,-36 -10,-70c0,-35 -3,-63 -8,-63c-4,0 -15,16 -24,35c-9,19 -20,35 -23,35c-4,0 -20,12 -36,26c-16,14 -42,32 -57,40c-28,15 -28,16 -11,35c17,19 16,20 -4,40c-12,11 -27,17 -33,13c-8,-5 -6,-10 5,-16c18,-10 22,-38 6,-38c-6,0 -13,7 -17,16c-4,11 -13,13 -37,8c-17,-3 -33,-10 -36,-15c-11,-17 -79,-39 -86,-28c-3,6 -2,14 3,18c5,3 13,14 16,25c6,14 14,17 37,13c16,-4 32,-2 35,3c4,6 10,8 14,6c4,-3 22,10 40,28c35,36 38,67 8,72c-27,4 -34,14 -17,24c29,18 -2,45 -55,48c-44,3 -51,0 -72,-26c-20,-26 -28,-29 -60,-25c-34,4 -42,1 -69,-29c-34,-37 -52,-78 -35,-78c5,0 22,-5 37,-10c25,-10 26,-12 11,-28c-31,-33 -114,-137 -142,-179c-15,-24 -30,-43 -34,-43c-3,1 -19,11 -35,25c-23,18 -27,27 -18,37c6,8 14,33 18,56c7,48 3,50 -61,27c-21,-8 -44,-10 -50,-6c-11,10 -71,7 -98,-4c-12,-5 -23,0 -36,16c-22,27 -31,22 -51,-29c-11,-29 -11,-34 5,-46c15,-10 16,-16 6,-35c-40,-75 -43,-163 -7,-199c14,-14 20,-14 56,7c23,13 44,21 47,17c3,-3 -1,-26 -8,-52c-9,-31 -21,-49 -36,-55c-31,-12 -45,-43 -49,-113c-3,-33 -8,-63 -12,-66c-4,-3 -22,-27 -40,-55l-33,-50l22,-17c26,-22 48,-23 56,-2c3,8 12,13 19,10c8,-3 14,1 14,8c0,8 9,24 20,37l19,24l1,-47c0,-49 -12,-67 -34,-49c-10,8 -18,6 -31,-9c-12,-13 -25,-18 -40,-14c-13,3 -26,1 -29,-4c-3,-6 -15,-8 -25,-5c-13,3 -26,-5 -42,-26c-12,-17 -29,-31 -36,-31c-7,0 -13,-5 -13,-12c0,-6 -3,-8 -6,-5c-4,4 -1,14 6,22c11,13 11,103 5,468c-5,249 -9,488 -9,532l-1,79l118,2l117,2l48,-37c91,-72 115,-77 133,-26c7,19 21,37 30,40c9,3 19,11 22,18c3,9 84,12 335,12c182,0 333,-3 336,-6zm-248,-41c4,-6 -2,-18 -13,-27c-29,-24 -18,-41 23,-34c40,7 41,1 13,-38c-17,-25 -27,-29 -67,-29c-52,0 -68,-7 -85,-37c-22,-37 -64,-98 -86,-123c-12,-14 -30,-34 -39,-45c-17,-20 -116,-149 -159,-208c-12,-17 -37,-37 -54,-44c-54,-23 -51,-11 18,67c29,33 123,160 123,166c0,3 9,15 21,27c11,12 48,58 81,102c33,44 64,82 69,83c25,10 4,22 -36,22c-50,0 -54,6 -26,39c14,16 29,22 53,20c54,-3 64,0 79,27c19,37 70,56 85,32zm55,-205c8,-9 10,-18 4,-20c-31,-11 -59,-30 -62,-43c-3,-9 -1,-11 4,-5c11,14 74,36 84,29c15,-9 10,-22 -11,-29c-20,-6 -20,-7 1,-36c12,-17 19,-33 16,-36c-12,-11 -59,9 -64,27c-7,25 -28,25 -60,0c-14,-11 -29,-17 -34,-14c-12,7 -12,34 0,34c19,0 42,32 36,51c-4,12 -2,19 7,19c8,0 21,9 31,20c21,24 30,25 48,3zm-185,-42c-12,-13 -13,-20 -4,-29c14,-14 4,-27 -12,-17c-13,8 -5,52 13,74c8,9 12,10 15,2c2,-7 -3,-20 -12,-30zm78,0c9,-13 -31,-44 -49,-38c-20,8 -19,34 3,40c29,8 41,7 46,-2zm-619,-21c8,-13 -4,-50 -16,-50c-5,0 -9,14 -9,30c0,30 13,40 25,20zm222,-11c9,-9 6,-17 -8,-32c-25,-28 -24,-56 4,-66c12,-5 31,-18 42,-30c16,-19 17,-24 5,-31c-8,-5 -18,-6 -22,-4c-16,10 -29,-7 -17,-22c15,-18 3,-32 -13,-16c-20,20 -28,13 -21,-20c6,-30 5,-32 -11,-19c-9,8 -20,10 -24,6c-4,-4 -1,-10 6,-12c6,-3 12,-9 12,-15c0,-6 -7,-7 -16,-4c-12,5 -15,2 -10,-9c8,-23 -20,-62 -54,-73c-15,-6 -31,-8 -34,-5c-11,11 25,63 44,63c26,0 26,20 0,27c-30,8 -24,40 10,58c26,13 80,78 80,96c0,4 -9,9 -20,12c-11,3 -18,2 -15,-3c10,-15 -21,-59 -58,-82c-21,-12 -44,-33 -53,-45c-24,-37 -38,-26 -15,11c22,34 27,56 13,56c-4,0 -18,-22 -31,-50c-13,-27 -27,-50 -32,-50c-18,0 -20,22 -3,41c9,10 15,21 12,24c-3,3 -11,-1 -18,-10c-32,-38 -35,3 -5,70c7,17 16,42 20,57c11,43 51,73 101,74c31,1 44,-3 44,-12c0,-10 8,-9 33,6c37,23 39,24 54,9zm622,-28c22,-18 41,-38 41,-42c0,-11 -61,-12 -75,-1c-5,4 -18,17 -29,29c-16,19 -17,25 -6,38c16,19 17,18 69,-24zm-333,8c3,-6 14,-9 24,-6c13,3 30,-12 61,-54c38,-52 111,-109 140,-109c5,0 9,19 9,43c0,52 13,75 32,59c8,-6 45,-12 83,-13l70,-3l2,-338c1,-202 -2,-338 -8,-338c-5,0 -9,6 -9,14c0,9 -7,12 -19,9c-16,-4 -19,-1 -14,16c5,18 1,21 -26,18c-17,-1 -30,-7 -29,-12c2,-6 11,-9 21,-7c14,1 17,-3 12,-18c-5,-16 -2,-20 14,-20c12,0 21,-5 21,-11c0,-7 9,-9 21,-6c20,5 21,3 15,-35c-8,-50 -44,-88 -104,-111c-33,-13 -77,-17 -202,-17c-156,0 -193,-6 -230,-37c-13,-10 -24,-8 -65,12c-48,24 -56,25 -241,23c-183,-2 -192,-1 -222,21c-74,53 -88,117 -35,169c26,27 32,29 35,15c3,-15 7,-14 27,9c22,25 25,26 37,10c7,-9 14,-15 16,-12c2,3 8,14 14,24c15,28 34,31 34,7c0,-28 14,-26 35,5c16,25 17,25 36,8c15,-14 19,-14 19,-3c0,8 -7,24 -14,35c-8,12 -16,41 -17,65c-2,38 3,53 32,92c35,48 47,56 53,35c2,-7 9,-33 15,-58c7,-25 14,-60 16,-78c2,-18 7,-38 11,-44c4,-7 3,-8 -5,-4c-6,4 -19,2 -28,-6c-13,-10 -17,-10 -20,0c-6,16 -33,16 -33,-1c0,-17 43,-43 48,-28c2,6 10,11 19,11c10,0 12,-6 7,-22c-14,-48 -45,-98 -59,-98c-8,0 -15,-4 -15,-10c0,-5 -4,-10 -10,-10c-5,0 -10,6 -10,14c0,26 -21,29 -43,7c-23,-23 -16,-41 8,-21c12,10 15,10 15,-4c0,-19 21,-21 38,-4c9,9 15,9 24,0c9,-9 15,-9 26,1c10,7 17,8 19,2c9,-26 23,-40 31,-29c4,6 17,16 29,23c18,9 24,8 32,-6c8,-15 13,-16 30,-6c29,18 33,16 26,-7c-6,-18 -3,-20 19,-14c18,4 26,2 26,-6c0,-9 11,-11 40,-6c32,5 40,3 40,-9c0,-11 7,-13 30,-9c23,5 30,3 30,-10c0,-9 5,-16 10,-16c6,0 10,11 10,25c0,20 -5,25 -25,25c-14,0 -25,4 -25,9c0,16 -32,22 -47,9c-12,-10 -18,-9 -28,6c-9,12 -20,16 -33,11c-31,-9 -33,27 -4,43c32,16 42,15 42,-3c0,-18 5,-18 31,-5c15,9 19,7 19,-6c0,-12 6,-15 25,-10c16,4 25,2 25,-5c0,-8 11,-9 31,-5c19,3 38,1 46,-6c10,-8 17,-8 25,0c19,19 48,14 48,-7c0,-17 3,-18 25,-8c25,12 36,32 13,25c-7,-3 -19,2 -27,10c-11,11 -12,18 -3,33c7,10 12,26 12,35c0,13 3,14 15,4c12,-10 15,-10 15,3c0,9 8,31 19,49c10,18 24,54 31,79c11,41 10,52 -8,92l-20,45l34,31c32,29 34,36 34,92c0,36 -7,75 -17,96c-16,34 -64,73 -91,73c-8,0 -25,9 -39,20c-14,11 -39,20 -55,20c-16,0 -38,5 -49,11c-13,7 -25,7 -32,1c-7,-5 -36,-10 -65,-11c-60,-1 -60,-5 5,82c45,58 56,66 69,46zm674,-23c0,-25 53,-76 78,-76c17,0 40,-39 35,-58c-10,-38 -91,-79 -144,-74c-26,3 -65,112 -39,112c5,0 7,13 3,32c-4,20 -3,29 4,25c6,-4 13,-20 16,-36c3,-15 12,-31 20,-34c10,-4 9,4 -5,31c-19,39 -24,77 -8,67c6,-3 10,-14 10,-24c0,-10 9,-26 20,-36c20,-18 20,-18 5,18c-17,42 -20,77 -5,77c6,0 10,-11 10,-24zm-482,-36c21,-28 31,-85 14,-78c-28,11 -101,65 -102,74c0,11 35,32 56,33c5,1 20,-12 32,-29zm-1089,-63c12,-24 21,-50 21,-59c0,-19 -30,-81 -44,-90c-16,-11 -108,-10 -101,1c3,5 1,12 -5,16c-5,3 -10,-1 -10,-9c0,-24 -15,-19 -51,14l-33,30l23,31c14,19 18,30 10,27c-8,-2 -18,-14 -24,-26c-15,-33 -27,-26 -20,11c11,50 34,67 101,74c32,3 66,9 74,14c28,15 38,9 59,-34zm-236,-4c-17,-12 -23,-25 -23,-55c0,-34 6,-46 41,-79c51,-48 137,-83 207,-83c28,0 52,-2 52,-4c0,-10 -63,-61 -70,-57c-10,6 0,-32 17,-65c7,-14 13,-29 13,-33c0,-13 -131,4 -175,23c-57,25 -78,52 -70,88c7,35 -11,116 -36,158c-27,45 -24,78 9,103c15,11 34,20 42,20c10,0 8,-5 -7,-16zm1966,-5c11,-29 -8,-69 -43,-92c-15,-9 -26,-21 -26,-27c0,-6 15,0 34,14l34,26l6,-22c3,-12 1,-26 -4,-31c-6,-6 -10,-14 -10,-20c0,-6 5,-5 12,2c14,14 32,16 23,2c-3,-5 -8,-19 -10,-29c-10,-54 -81,-103 -167,-117c-18,-3 -50,-10 -71,-16c-20,-6 -39,-9 -42,-6c-13,13 17,58 49,73c44,21 47,39 6,30c-32,-7 -87,12 -108,38c-17,20 -4,58 17,48c9,-4 48,-7 88,-5c77,2 119,20 177,75c28,27 28,29 12,54c-15,22 -15,25 -1,25c9,0 19,-10 24,-22zm-802,-19c18,-18 25,-20 37,-10c12,10 20,9 43,-5c15,-10 34,-25 41,-33c11,-14 14,-14 21,-2c7,11 14,8 35,-15c14,-16 26,-36 26,-45c0,-9 3,-19 7,-23c11,-11 12,-49 1,-86c-16,-52 -32,-63 -25,-16c8,50 -2,96 -20,96c-11,0 -13,-5 -7,-17c4,-10 7,-27 6,-38c-6,-158 -6,-164 11,-183c20,-22 21,-25 3,-65c-7,-18 -17,-45 -22,-62c-5,-16 -14,-29 -19,-28c-13,2 -34,-37 -35,-64c0,-12 -5,-25 -12,-29c-8,-5 -9,-2 -5,10c5,14 3,17 -8,12c-9,-3 -15,0 -15,10c0,18 56,130 70,139c22,14 9,50 -25,73c-19,12 -46,40 -60,61c-23,37 -28,40 -77,43c-34,2 -79,-5 -124,-19c-115,-35 -216,-36 -235,-2c-11,21 -10,22 37,15c27,-4 65,-6 84,-5c19,1 48,2 63,2c16,0 26,5 24,11c-3,7 -28,10 -71,8c-37,-2 -72,1 -79,6c-16,13 -136,8 -164,-7c-13,-6 -28,-21 -34,-32c-16,-31 -21,-17 -14,35c7,41 10,46 34,46c14,0 39,7 54,15c43,22 155,55 191,56c22,0 38,9 54,30c20,24 21,29 7,29c-9,0 -25,-10 -34,-21c-10,-12 -23,-20 -30,-18c-9,3 48,86 95,138c2,3 15,-6 29,-19c22,-21 30,-20 26,3c-2,12 47,8 55,-5c5,-7 10,-4 15,10c10,27 17,27 46,1zm-469,-317c-18,-21 -55,-65 -82,-100c-39,-51 -51,-61 -62,-51c-12,9 -9,18 18,53c18,22 38,47 44,53c7,7 14,16 16,20c8,19 80,73 89,67c5,-3 -5,-22 -23,-42zm401,-23c33,-57 24,-120 -19,-136c-25,-9 -30,-9 -30,3c0,16 -18,18 -40,4c-9,-5 -19,-5 -26,1c-13,10 -54,-8 -54,-23c0,-5 -7,-8 -15,-8c-13,0 -15,12 -13,72l3,72l80,27c44,15 83,27 86,28c3,0 16,-17 28,-40zm95,10c30,-36 31,-39 11,-65c-8,-10 -15,-28 -15,-40c0,-36 -21,-84 -37,-84c-8,0 -11,-4 -8,-10c10,-16 -14,-50 -35,-50c-23,0 -25,12 -8,43c19,36 47,157 37,163c-5,3 -9,13 -9,24c0,10 -7,20 -15,24c-27,10 -16,26 19,26c26,0 41,-7 60,-31zm-336,-19c21,0 22,-3 22,-100c0,-83 -3,-100 -15,-100c-9,0 -15,-6 -13,-12c3,-16 -33,-78 -45,-78c-4,0 -5,5 -2,10c3,6 2,10 -4,10c-5,0 -11,-6 -14,-12c-2,-7 -8,-10 -12,-6c-4,4 3,22 16,40c21,29 24,44 24,125c0,60 -4,96 -12,105c-20,19 -15,31 10,24c12,-3 32,-6 45,-6zm422,-86c0,-21 -55,-78 -68,-70c-11,7 -7,49 9,94c8,22 10,22 34,6c14,-9 25,-22 25,-30zm-300,-70c0,-20 9,-18 31,9c15,18 18,19 19,5c0,-26 19,-32 42,-11c21,18 21,18 14,-7c-4,-14 -10,-41 -13,-60c-8,-47 -43,-72 -43,-30c0,19 0,19 -40,-1c-22,-11 -45,-19 -52,-16c-7,2 -37,-9 -65,-25c-56,-32 -69,-25 -28,13c13,13 25,30 25,38c0,11 3,11 15,1c16,-14 18,-10 15,37c-1,24 2,32 12,28c7,-3 21,6 32,20c19,25 36,25 36,-1zm249,-30c3,-3 -1,-10 -7,-16c-7,-7 -12,-29 -12,-51c0,-31 -3,-38 -17,-35c-10,1 -24,-1 -31,-6c-9,-5 -18,-2 -26,10c-9,12 -15,14 -20,6c-9,-15 -36,-16 -36,-2c0,5 16,16 36,25c20,8 38,24 41,35c3,11 9,20 14,20c5,0 9,7 9,16c0,11 6,14 23,8c12,-3 24,-8 26,-10zm-299,-113c0,-5 -7,-12 -16,-15c-24,-9 -28,-7 -14,9c14,17 30,20 30,6z" id="svg_2" fill="black"/>
   <path d="m2200.40625,2521.90625c-31,-40 -58,-93 -50,-100c2,-2 20,23 41,56c20,34 44,65 53,71c15,8 15,9 1,10c-9,0 -29,-17 -45,-37z" id="svg_3"/>
   <path d="m2272.40625,2505.90625c-17,-23 -24,-40 -19,-52c5,-14 3,-17 -9,-12c-12,4 -14,1 -10,-15c3,-14 1,-19 -6,-14c-8,5 -10,2 -6,-8c10,-25 22,-19 34,19c6,19 21,42 33,50c11,8 18,18 14,22c-4,3 -14,-2 -22,-13c-8,-10 -15,-15 -15,-10c0,6 10,20 22,33c12,13 19,25 16,29c-3,3 -18,-10 -32,-29z" id="svg_4"/>
   <path d="m2403.40625,2491.90625c8,-50 13,-55 13,-10c0,20 -4,38 -9,42c-6,3 -7,-10 -4,-32z" id="svg_5"/>
   <path d="m2434.40625,2470.90625c-3,-20 -3,-39 -1,-42c7,-8 23,24 23,47c0,38 -18,34 -22,-5z" id="svg_6"/>
   <path d="m2139.40625,2486.90625c-19,-27 -32,-67 -23,-73c6,-4 10,2 10,12c0,10 7,29 16,41c17,24 14,42 -3,20z" id="svg_7"/>
   <path d="m2469.40625,2458.90625c0,-25 2,-35 4,-22c2,12 2,32 0,45c-2,12 -4,2 -4,-23z" id="svg_8"/>
   <path d="m2496.40625,2448.90625c0,-11 5,-20 10,-20c6,0 10,9 10,20c0,11 -4,20 -10,20c-5,0 -10,-9 -10,-20z" id="svg_9"/>
   <path d="m1899.40625,2001.90625c15,-2 37,-2 50,0c12,2 0,4 -28,4c-27,0 -38,-2 -22,-4z" id="svg_10"/>
   <path d="m2450.40625,1999.90625c3,-5 21,-14 38,-20l33,-11l-24,20c-23,20 -57,28 -47,11z" id="svg_11"/>
   <path d="m2451.40625,1956.90625c17,-6 37,-17 46,-24c18,-16 29,-18 29,-4c0,14 -55,40 -82,39c-20,0 -19,-2 7,-11z" id="svg_12"/>
   <path d="m2422.40625,1931.90625c-4,-4 16,-15 45,-25c67,-23 77,-15 15,12c-55,23 -51,22 -60,13z" id="svg_13"/>
   <path d="m1906.40625,1898.90625c-13,-9 -13,-10 0,-10c8,0 22,5 30,10c13,9 13,10 0,10c-8,0 -22,-5 -30,-10z" id="svg_14"/>
   <path d="m1966.40625,1899.90625c0,-10 97,-19 112,-10c16,10 -3,16 -59,18c-29,1 -53,-2 -53,-8z" id="svg_15"/>
   <path d="m2426.40625,1890.90625c0,-6 9,-13 20,-16c11,-3 29,-9 40,-12c11,-3 20,-1 20,4c0,5 -10,12 -22,15c-13,2 -31,8 -40,12c-11,4 -18,3 -18,-3z" id="svg_16"/>
   <path d="m2415.40625,1670.90625c-48,-32 -89,-71 -89,-84c0,-7 12,-1 28,15c15,15 42,41 61,57c39,34 39,38 0,12z" id="svg_17"/>
   <path d="m2450.40625,1616.90625c-81,-73 -84,-76 -84,-82c0,-15 20,-1 85,58c38,36 67,67 64,71c-4,3 -33,-18 -65,-47z" id="svg_18"/>
   <path d="m2322.40625,1532.90625c-4,-10 -1,-14 6,-12c15,5 23,28 10,28c-5,0 -13,-7 -16,-16z" id="svg_19"/>
   <path d="m2430.40625,1503.90625c-21,-19 -34,-34 -28,-35c5,0 25,16 44,35c43,45 35,45 -16,0z" id="svg_20"/>
   <path d="m2242.40625,1353.90625c-3,-9 0,-15 9,-15c8,0 15,7 15,15c0,8 -4,15 -9,15c-5,0 -11,-7 -15,-15z" id="svg_21"/>
   <path d="m531.40625,2369.90625c-18,-27 -28,-57 -31,-97l-4,-59l14,63c8,35 25,78 36,97c30,48 16,44 -15,-4z" id="svg_22"/>
   <path d="m607.40625,2395.90625c-26,-32 -59,-147 -42,-147c5,0 11,21 15,46c3,26 15,62 27,80c21,34 21,46 0,21z" id="svg_23"/>
   <path d="m558.40625,2365.90625c-13,-15 -36,-116 -29,-123c3,-3 10,18 16,47c7,29 17,59 23,66c6,7 9,16 6,18c-3,3 -10,-1 -16,-8z" id="svg_24"/>
   <path d="m473.40625,2311.90625c-11,-10 -8,-113 2,-113c6,0 10,27 10,60c-1,62 -1,64 -12,53z" id="svg_25"/>
   <path d="m478.40625,2166.90625c-8,-10 -4,-13 19,-13c16,0 28,5 26,10c-5,16 -33,17 -45,3z" id="svg_26"/>
   <path d="m576.40625,2123.90625c0,-11 5,-27 10,-35c8,-12 10,-12 10,5c0,11 -5,27 -10,35c-8,12 -10,12 -10,-5z" id="svg_27"/>
   <path d="m473.40625,2093.90625c-4,-8 -2,-17 2,-20c5,-2 11,4 14,15c6,23 -8,27 -16,5z" id="svg_28"/>
   <path d="m538.40625,2089.90625c2,-14 9,-26 16,-29c17,-5 15,10 -3,34c-15,18 -15,18 -13,-5z" id="svg_29"/>
   <path d="m503.40625,2072.90625c-15,-15 -7,-44 13,-44c11,0 20,4 20,8c0,15 -26,43 -33,36z" id="svg_30"/>
   <path d="m1532.40625,2420.90625c-13,-6 -16,-11 -8,-16c6,-4 20,-3 29,2c19,9 85,8 131,-2c24,-5 25,-5 8,5c-23,14 -134,22 -160,11z" id="svg_31"/>
   <path d="m1556.40625,2338.90625c-13,-8 -12,-10 5,-11c11,-1 25,0 30,1c19,5 135,1 144,-5c5,-3 12,-1 15,4c3,5 -4,11 -17,15c-35,9 -161,7 -177,-4z" id="svg_32"/>
   <path d="m1867.40625,2282.90625c-15,-34 -9,-40 14,-14c12,14 15,24 8,31c-6,6 -14,1 -22,-17z" id="svg_33"/>
   <path d="m1883.40625,2250.90625c-28,-30 -20,-49 8,-22c25,24 32,40 17,40c-5,0 -16,-8 -25,-18z" id="svg_34"/>
   <path d="m1389.40625,2290.90625c-29,-2 -53,-8 -53,-14c0,-11 95,-6 107,6c10,10 1,11 -54,8z" id="svg_35"/>
   <path d="m1326.40625,2244.90625c0,-7 18,-10 50,-8c65,5 65,23 0,21c-28,-1 -50,-7 -50,-13z" id="svg_36"/>
   <path d="m1482.40625,2241.90625c-11,-11 -6,-23 9,-23c8,0 15,4 15,9c0,13 -16,22 -24,14z" id="svg_37"/>
   <path d="m1571.40625,2158.90625c-3,-5 -4,-14 0,-20c8,-13 35,-1 35,16c0,16 -26,19 -35,4z" id="svg_38"/>
   <path d="m1464.40625,2110.90625c11,-7 8,-11 -10,-16c-12,-4 -18,-9 -13,-12c6,-2 30,2 55,10c36,11 40,14 18,15c-14,1 -35,4 -45,7c-13,4 -14,3 -5,-4z" id="svg_39"/>
   <path d="m1579.40625,2101.90625c-18,-6 -16,-33 1,-33c19,0 31,19 20,30c-5,4 -15,5 -21,3z" id="svg_40"/>
   <path d="m1489.40625,2065.90625c-24,-5 -43,-14 -43,-20c0,-13 72,1 90,19c16,16 13,16 -47,1z" id="svg_41"/>
   <path d="m1261.40625,2061.90625c-38,-10 -68,-24 -63,-29c8,-8 98,17 98,27c0,10 -3,10 -35,2z" id="svg_42"/>
   <path d="m1581.40625,2028.90625c-4,-6 5,-10 19,-10c14,0 26,5 26,10c0,6 -9,10 -19,10c-11,0 -23,-4 -26,-10z" id="svg_43"/>
   <path d="m1466.40625,2018.90625c-20,-6 -21,-8 -5,-8c11,0 29,3 40,8c25,11 -1,11 -35,0z" id="svg_44"/>
   <path d="m1294.40625,2005.90625c-21,-6 -38,-16 -38,-24c0,-17 4,-17 50,7c60,30 55,36 -12,17z" id="svg_45"/>
   <path d="m1464.40625,1991.90625c-10,-2 -18,-9 -18,-15c0,-6 10,-8 23,-4c12,3 25,6 30,6c4,0 7,5 7,10c0,10 -12,11 -42,3z" id="svg_46"/>
   <path d="m1320.40625,1933.90625c-15,-11 -16,-14 -3,-15c8,0 24,7 35,15c15,11 16,14 3,15c-8,0 -24,-7 -35,-15z" id="svg_47"/>
   <path d="m1546.40625,1908.90625c-8,-5 -11,-12 -7,-16c4,-4 13,-2 19,4c15,15 7,24 -12,12z" id="svg_48"/>
   <path d="m477.40625,1717.90625c-1,-18 29,-49 47,-49c7,0 12,5 12,10c0,6 -6,10 -14,10c-7,0 -21,10 -29,23c-12,16 -16,18 -16,6z" id="svg_49"/>
   <path d="m466.40625,1665.90625c0,-19 33,-47 56,-47c15,0 12,5 -14,30c-37,34 -42,36 -42,17z" id="svg_50"/>
   <path d="m466.40625,1605.90625c0,-13 39,-41 47,-34c5,5 -33,47 -42,47c-3,0 -5,-6 -5,-13z" id="svg_51"/>
   <path d="m456.40625,1558.90625c0,-11 42,-52 48,-46c2,2 -4,16 -13,30c-17,26 -35,34 -35,16z" id="svg_52"/>
   <path d="m766.40625,1350.90625c19,-15 46,-37 59,-50c13,-13 26,-20 29,-17c10,10 -84,95 -105,95c-13,0 -9,-7 17,-28z" id="svg_53"/>
   <path d="m1341.40625,1347.90625c-4,-6 -5,-13 -2,-16c7,-7 27,6 27,18c0,12 -17,12 -25,-2z" id="svg_60"/>
   <path d="m1214.40625,1294.90625c-9,-13 -15,-26 -12,-29c8,-8 54,17 54,30c0,6 6,14 13,16c6,3 1,6 -13,6c-15,0 -32,-9 -42,-23z" id="svg_61"/>
   <path d="m1173.40625,1241.90625c-10,-9 -9,-23 2,-23c5,0 11,7 15,15c5,15 -5,20 -17,8z" id="svg_62"/>
   <path d="m1936.40625,663.90625c0,-32 2,-35 19,-25c11,5 23,15 26,20c3,6 14,10 25,10c10,0 21,7 24,16c5,12 1,14 -17,8c-12,-3 -30,-13 -39,-22c-17,-14 -18,-13 -18,6c0,12 -4,22 -10,22c-5,0 -10,-16 -10,-35z" id="svg_64"/>
   <path d="m1886.40625,544.90625c0,-8 -3,-22 -7,-32c-5,-15 -2,-16 24,-11c27,5 30,4 26,-13c-5,-17 -2,-18 28,-10c23,7 35,6 40,-1c4,-7 12,-8 18,-5c21,13 11,26 -19,26c-21,0 -30,5 -30,16c0,13 -7,15 -30,11c-25,-6 -30,-3 -30,13c0,11 -4,20 -10,20c-5,0 -10,-6 -10,-14z" id="svg_65"/>
   <path d="m1077.40625,529.90625c-7,-12 -10,-25 -7,-29c3,-3 6,-2 6,3c0,4 7,2 15,-5c13,-11 20,-9 40,10c14,13 25,18 25,12c0,-7 5,-12 10,-12c6,0 10,9 10,20c0,28 -33,26 -53,-2l-15,-23l-10,25l-9,24l-12,-23z" id="svg_66"/>
   <path d="m1207.40625,499.90625c-9,-6 -7,-10 8,-14c12,-3 21,-1 21,3c0,14 -15,19 -29,11z" id="svg_67"/>
   <path d="m1393.40625,481.90625c5,-12 2,-15 -10,-10c-9,3 -17,2 -17,-3c0,-5 14,-8 30,-8c35,1 39,13 10,28c-16,9 -19,8 -13,-7z" id="svg_68"/>
   <path d="m731.40625,1238.90625c-18,-8 -17,-9 8,-9c15,-1 27,4 27,9c0,12 -8,12 -35,0z" id="svg_69"/>
   <path d="m739.40625,1197.90625c14,-8 22,-8 30,0c8,8 3,11 -18,11c-26,-1 -28,-2 -12,-11z" id="svg_70"/>
   <path d="m699.40625,1166.90625c-5,-10 -7,-9 40,-11c21,-1 43,3 48,9c6,8 -5,11 -37,10c-25,-1 -48,-4 -51,-8z" id="svg_71"/>
   <path d="m601.40625,1147.90625c-4,-6 -5,-13 -2,-16c7,-7 27,6 27,18c0,12 -17,12 -25,-2z" id="svg_72"/>
   <path d="m716.40625,1128.90625c0,-5 9,-10 21,-10c11,0 17,5 14,10c-3,6 -13,10 -21,10c-8,0 -14,-4 -14,-10z" id="svg_73"/>
   <path d="m639.40625,1015.90625c5,-15 65,-39 71,-28c3,4 -13,15 -35,24c-26,10 -39,12 -36,4z" id="svg_74"/>
   <path d="m620.40625,957.90625c18,-29 91,-48 110,-29c7,7 -4,10 -34,10c-31,0 -51,6 -68,23l-25,22l17,-26z" id="svg_75"/>
   <path d="m641.40625,968.90625c3,-5 13,-10 21,-10c8,0 12,5 9,10c-3,6 -13,10 -21,10c-8,0 -12,-4 -9,-10z" id="svg_76"/>
   <path d="m626.40625,908.90625c0,-9 31,-30 44,-30c16,0 3,18 -19,28c-14,7 -25,8 -25,2z" id="svg_77"/>
   <path d="m2474.40625,1094.90625c-51,-28 -58,-51 -7,-25c36,20 56,37 48,43c-2,1 -21,-7 -41,-18z" id="svg_78"/>
   <path d="m2396.40625,1068.90625c-12,-7 -12,-12 -3,-21c10,-10 14,-9 19,5c8,22 2,27 -16,16z" id="svg_79"/>
   <path d="m2482.40625,1053.90625c-19,-14 -14,-35 9,-35c8,0 11,8 8,23c-3,16 -2,18 5,8c6,-8 12,-9 16,-3c10,16 -18,21 -38,7z" id="svg_80"/>
   <path d="m1541.40625,1169.90625c-6,-11 33,-36 42,-27c7,7 -16,36 -28,36c-4,0 -10,-4 -14,-9z" id="svg_81"/>
   <path d="m1696.40625,1164.90625c0,-8 7,-17 16,-20c28,-11 34,-6 22,14c-15,23 -38,27 -38,6z" id="svg_82"/>
   <path d="m1776.40625,1163.90625c0,-3 9,-15 20,-27c22,-24 40,-16 24,10c-11,17 -44,30 -44,17z" id="svg_83"/>
   <path d="m1606.40625,1139.90625c0,-9 24,-21 42,-21c6,0 6,6 -2,15c-14,16 -40,20 -40,6z" id="svg_84"/>
   <path d="m1696.40625,1104.90625c25,-23 37,-19 26,9c-3,8 -16,15 -28,15l-23,0l25,-24z" id="svg_85"/>
   <path d="m1835.40625,1102.90625c-10,-12 -9,-18 4,-31c20,-20 35,-10 18,11c-9,11 -9,15 1,18c8,3 9,6 1,11c-6,4 -16,0 -24,-9z" id="svg_86"/>
   <path d="m1752.40625,1092.90625c-3,-8 -2,-12 4,-9c5,3 15,-5 21,-19c10,-20 15,-23 29,-14c16,10 15,13 -10,35c-33,27 -36,28 -44,7z" id="svg_87"/>
   <path d="m1566.40625,1078.90625c0,-13 28,-25 38,-16c3,4 0,11 -8,16c-20,13 -30,12 -30,0z" id="svg_88"/>
   <path d="m1648.40625,1076.90625c6,-18 28,-21 28,-4c0,9 -7,16 -16,16c-9,0 -14,-5 -12,-12z" id="svg_89"/>
   <path d="m1560.40625,1042.90625c3,-9 6,-18 6,-20c0,-3 4,-3 10,1c11,7 2,35 -12,35c-6,0 -7,-7 -4,-16z" id="svg_90"/>
   <path d="m1696.40625,1049.90625c0,-18 12,-41 21,-41c15,0 10,37 -6,44c-8,3 -15,1 -15,-3z" id="svg_91"/>
   <path d="m1516.40625,1034.90625c0,-15 18,-31 26,-23c7,7 -7,37 -17,37c-5,0 -9,-6 -9,-14z" id="svg_92"/>
   <path d="m1826.40625,1033.90625c0,-8 5,-15 10,-15c6,0 10,-9 10,-20c0,-11 5,-20 10,-20c6,0 10,9 10,20c0,11 -4,20 -10,20c-5,0 -10,7 -10,15c0,8 -4,15 -10,15c-5,0 -10,-7 -10,-15z" id="svg_93"/>
   <path d="m1756.40625,1030.90625c0,-4 5,-13 11,-19c8,-8 8,-17 0,-32c-9,-16 -8,-27 6,-48c23,-37 63,-78 63,-66c0,6 -7,16 -15,23c-8,7 -15,21 -15,31c0,11 -7,19 -15,19c-20,0 -19,19 1,42c16,16 16,18 0,24c-9,3 -16,12 -16,20c0,8 -4,14 -10,14c-5,0 -10,-4 -10,-8z" id="svg_94"/>
   <path d="m1458.40625,1016.90625c6,-18 28,-21 28,-4c0,9 -7,16 -16,16c-9,0 -14,-5 -12,-12z" id="svg_95"/>
   <path d="m1646.40625,1015.90625c0,-8 7,-18 16,-21c11,-4 14,-1 12,11c-4,21 -28,30 -28,10z" id="svg_96"/>
   <path d="m1386.40625,1008.90625c0,-15 38,-32 45,-20c3,5 3,15 0,20c-8,13 -45,13 -45,0z" id="svg_97"/>
   <path d="m1733.40625,1012.90625c-4,-4 -7,-14 -7,-23c0,-11 3,-12 11,-4c6,6 10,16 7,23c-2,6 -7,8 -11,4z" id="svg_98"/>
   <path d="m1598.40625,994.90625c1,-10 8,-17 13,-17c15,1 12,24 -3,29c-9,3 -13,-2 -10,-12z" id="svg_99"/>
   <path d="m1526.40625,973.90625c0,-8 5,-15 10,-15c6,0 10,7 10,15c0,8 -4,15 -10,15c-5,0 -10,-7 -10,-15z" id="svg_100"/>
   <path d="m1661.40625,968.90625c-18,-8 -17,-9 8,-9c16,-1 26,3 22,9c-3,6 -7,10 -8,9c-1,0 -11,-4 -22,-9z" id="svg_101"/>
   <path d="m1806.40625,963.90625c0,-8 5,-15 10,-15c6,0 10,7 10,15c0,8 -4,15 -10,15c-5,0 -10,-7 -10,-15z" id="svg_102"/>
   <path d="m1705.40625,861.90625c12,-24 31,-39 31,-25c0,5 -10,17 -21,28c-22,19 -22,19 -10,-3z" id="svg_103"/>
   <path d="m1978.40625,2776.90625c6,-18 28,-21 28,-4c0,9 -7,16 -16,16c-9,0 -14,-5 -12,-12z" id="svg_104"/>
   <path d="m946.40625,2745.90625c0,-21 36,-49 72,-56l33,-7l-32,-14c-18,-8 -33,-18 -33,-21c0,-11 104,-21 125,-12c15,6 9,9 -28,13l-47,5l50,34c45,31 53,33 74,21c26,-13 56,-8 56,10c0,5 -15,10 -34,10c-19,0 -38,4 -41,10c-4,6 -18,1 -34,-11c-43,-31 -98,-30 -125,4c-24,30 -36,34 -36,14z" id="svg_105"/>
   <path d="m806.40625,2438.90625c0,-16 28,-80 35,-80c5,0 1,27 -12,73c-5,18 -23,24 -23,7z" id="svg_106"/>
   <path d="m841.40625,2431.90625c4,-10 12,-30 17,-45c12,-33 24,-36 31,-8c3,13 0,20 -10,20c-8,0 -11,5 -8,10c7,12 -12,40 -27,40c-6,0 -7,-8 -3,-17z" id="svg_107"/>
   <path d="m773.40625,2421.90625c-4,-7 -3,-14 3,-18c5,-3 10,-17 10,-30c0,-13 5,-27 11,-30c16,-10 22,1 11,22c-6,10 -14,29 -19,42c-6,15 -12,20 -16,14z" id="svg_108"/>
   <path d="m736.40625,2408.90625c0,-19 30,-83 36,-77c8,7 -14,75 -27,82c-5,4 -9,1 -9,-5z" id="svg_109"/>
   <path d="m1176.40625,2309.90625c0,-10 24,-21 43,-21c7,0 3,7 -7,15c-22,17 -36,19 -36,6z" id="svg_110"/>
   <path d="m1006.40625,2189.90625c0,-10 36,-21 70,-21c19,1 21,3 10,9c-24,13 -80,21 -80,12z" id="svg_111"/>
   <path d="m595.40625,1941.90625c-47,-40 -59,-53 -59,-67c0,-4 17,7 38,25c20,19 51,44 67,56c19,15 24,22 14,23c-8,0 -35,-17 -60,-37z" id="svg_112"/>
   <path d="m996.40625,1948.90625c0,-12 177,-14 184,-2c2,4 -38,8 -90,9c-55,1 -94,-2 -94,-7z" id="svg_113"/>
   <path d="m636.40625,1931.90625c-37,-25 -90,-75 -102,-98c-6,-11 12,1 40,28c28,26 63,52 77,59c14,6 25,15 25,20c0,12 -12,9 -40,-9z" id="svg_114"/>
  </g>
 </g>
</svg>
